<svg width="35" height="35" viewBox="0 0 35 35" fill="none" xmlns="http://www.w3.org/2000/svg">
<path d="M4.83301 28.4732H30.1626C32.7139 28.4732 33.9834 27.2036 33.9834 24.689V9.78418C33.9834 7.26954 32.7139 6 30.1626 6H4.83301C2.28174 6 1 7.25733 1 9.78418V24.689C1 27.2158 2.28174 28.4732 4.83301 28.4732ZM4.85742 26.5078C3.63672 26.5078 2.96533 25.8609 2.96533 24.5913V9.88184C2.96533 8.61231 3.63672 7.96534 4.85742 7.96534H30.126C31.3345 7.96534 32.0181 8.61231 32.0181 9.88184V24.5913C32.0181 25.8609 31.3345 26.5078 30.126 26.5078H4.85742ZM1 22.6626H5.98047C7.604 22.6626 8.54395 21.7227 8.54395 20.1235V14.3374C8.54395 12.7383 7.604 11.7983 5.98047 11.7983H1V13.5195H5.96826C6.50537 13.5195 6.82275 13.8369 6.82275 14.3862V20.0747C6.82275 20.624 6.50537 20.9414 5.96826 20.9414H1V22.6626ZM16.6006 26.8252H18.3218V7.64795H16.6006V26.8252ZM17.4429 22.9922C20.8853 22.9922 23.2534 20.6485 23.2168 17.2305C23.1924 13.8613 20.8364 11.5054 17.4429 11.481C14.0615 11.4443 11.7056 13.7881 11.7056 17.2305C11.7056 20.6485 14.0615 22.9922 17.4429 22.9922ZM17.4551 21.3565C15.0381 21.3565 13.3291 19.6475 13.3291 17.2183C13.3291 14.8013 15.0381 13.1167 17.4551 13.1167C19.8965 13.1167 21.6055 14.8013 21.5933 17.2183C21.5811 19.6475 19.8721 21.3565 17.4551 21.3565ZM33.9834 22.6626V20.9414H29.0151C28.4902 20.9414 28.1729 20.624 28.1729 20.0747V14.3862C28.1729 13.8369 28.4902 13.5195 29.0151 13.5195H33.9834V11.7983H29.0029C27.3794 11.7983 26.4517 12.7383 26.4517 14.3374V20.1235C26.4517 21.7227 27.3794 22.6626 29.0029 22.6626H33.9834Z" fill="black" fill-opacity="0.85"/>
</svg>
