<svg width="35" height="35" viewBox="0 0 35 35" fill="none" xmlns="http://www.w3.org/2000/svg">
<g clip-path="url(#clip0_453_152)">
<path d="M11.4158 8.82087L12.8845 7.35219L8.85207 3.33263C8.45269 2.92037 7.78277 2.92037 7.38339 3.33263C6.98401 3.73201 6.98401 4.38905 7.38339 4.80131L11.4158 8.82087ZM27.9449 23.8684L26.502 22.3869C24.4536 24.461 21.6065 25.7107 18.4242 25.7107C12.0729 25.7107 7.07419 20.7121 7.07419 14.3606C7.07419 11.1914 8.32386 8.34419 10.3723 6.30865L8.86495 4.89149C6.46868 7.30065 5 10.6374 5 14.3606C5 21.8458 10.9391 27.7849 18.4242 27.7849C22.1733 27.7849 25.5229 26.2904 27.9449 23.8684ZM25.3039 19.7845L23.7707 21.1758L28.3056 25.7107C28.705 26.1101 29.3621 26.1101 29.7614 25.7107C30.1737 25.3114 30.1737 24.6414 29.7614 24.242L25.3039 19.7845ZM17.3808 27.2438V30.6707H19.4549V27.2438H17.3808ZM13.7992 31.9977H23.0751C23.642 31.9977 24.1057 31.5339 24.1057 30.9671C24.1057 30.4002 23.642 29.9235 23.0751 29.9235H13.7992C13.2323 29.9235 12.7557 30.4002 12.7557 30.9671C12.7557 31.5339 13.2323 31.9977 13.7992 31.9977ZM18.4242 23.8298C23.642 23.8298 27.8805 19.5912 27.8805 14.3606C27.8805 9.14294 23.642 4.90438 18.4242 4.90438C13.1937 4.90438 8.95514 9.14294 8.95514 14.3606C8.95514 19.5912 13.1937 23.8298 18.4242 23.8298ZM18.4242 21.8844C14.0053 21.8844 10.9005 18.7795 10.9005 14.3606C10.9005 9.9417 14.0053 6.84974 18.4242 6.84974C22.8432 6.84974 25.9351 9.9417 25.9351 14.3606C25.9351 18.7795 22.8432 21.8844 18.4242 21.8844Z" fill="black"/>
<g clip-path="url(#clip1_453_152)">
<path d="M12.172 18.2517C13.4213 17.3085 13.3799 15.7199 13.8515 15.7199C14.108 15.7199 14.3644 15.9433 14.8112 16.5142C15.5724 17.4987 16.0771 17.9869 16.59 17.9869C17.0699 17.9869 17.6573 17.2836 17.6573 16.7211C17.6573 16.4563 17.1609 16.1171 17.1609 15.9185C17.1609 15.8027 17.2767 15.7447 17.4422 15.7447C18.6088 15.7447 19.6347 14.7685 19.6347 13.9908C19.6347 13.4365 18.7329 12.9235 18.7329 12.5677C18.7329 12.4188 18.857 12.3195 19.0059 12.3195C19.1052 12.3195 19.221 12.3609 19.3699 12.4685C20.2717 13.18 20.6937 12.8077 20.7764 12.3526C20.8095 12.1623 20.917 11.9638 21.3886 11.7321C22.3732 11.2109 23.0682 10.4994 23.0682 9.94505C23.0682 9.32454 21.943 8.79504 21.943 8.5551C21.943 8.42273 22.1498 8.3069 22.6959 8.14143C21.8437 7.36372 20.4869 6.79285 18.7081 6.79285C14.0335 6.97487 10.9971 10.3174 10.9723 14.603C10.964 15.9433 11.386 17.2753 12.172 18.2517ZM22.4063 21.5941C24.0279 20.5599 25.2193 19.3024 25.9804 17.8462C25.8398 16.7872 25.3351 16.175 24.6236 16.175C24.4333 16.175 24.1933 16.2081 23.9782 16.2825C23.6887 16.3736 23.6307 16.357 23.3991 16.0922C23.0682 15.7117 22.7786 15.5793 22.3235 15.5793C21.4631 15.5793 20.9667 16.0261 20.5944 17.143C20.4869 17.4822 20.3379 17.598 19.7588 17.8214L19.4113 17.9455C18.7659 18.1937 18.6005 18.657 18.8239 19.6333C19.0224 20.4938 19.4361 20.9323 20.0235 20.9323C20.553 20.9323 20.8757 20.742 21.2397 20.742C21.7692 20.7254 22.034 21.0729 22.4063 21.5941ZM20.7102 14.0983C21.248 14.0983 21.4879 13.6185 22.0919 13.4365C22.489 13.3206 22.7042 12.9152 22.7042 12.5677C22.7042 12.2864 22.5635 12.0465 22.2574 12.0465C21.9347 12.0465 21.6369 12.2947 21.4383 12.7167C21.3307 12.9566 21.1487 13.0725 20.7102 13.1965C20.3628 13.3041 20.2387 13.4282 20.2387 13.6929C20.2387 13.9742 20.462 14.0983 20.7102 14.0983ZM18.3109 17.9207C18.7825 17.9207 19.2458 17.3746 19.2458 16.8865C19.2458 16.2825 18.9976 16.0013 18.7081 16.0013C18.3936 16.0013 18.1951 16.3736 18.1951 16.9362C18.1951 17.2588 17.9138 17.2671 17.9138 17.5898C17.9138 17.7883 18.071 17.9207 18.3109 17.9207ZM16.863 19.4348C17.2271 19.4348 17.4505 19.2444 17.4505 18.9466C17.4505 18.715 17.2767 18.566 17.0285 18.566C16.0274 18.566 15.9861 18.0035 15.5062 18.0035C15.2414 18.0035 15.0594 18.1606 15.0594 18.3923C15.0594 18.5743 15.2414 18.715 15.4896 18.715C16.0191 18.715 15.7709 19.4348 16.863 19.4348ZM18.7163 23.042C23.3329 23.042 27.1552 19.2114 27.1552 14.603C27.1552 9.98642 23.3247 6.16406 18.7081 6.16406C14.0997 6.16406 10.2773 9.98642 10.2773 14.603C10.2773 19.2114 14.108 23.042 18.7163 23.042ZM18.7163 21.9168C14.7202 21.9168 11.4025 18.5991 11.4025 14.603C11.4025 10.6069 14.7119 7.28926 18.7081 7.28926C22.7042 7.28926 26.0301 10.6069 26.0301 14.603C26.0301 18.5991 22.7124 21.9168 18.7163 21.9168Z" fill="black"/>
</g>
</g>
<defs>
<clipPath id="clip0_453_152">
<rect width="25.4443" height="29" fill="white" transform="translate(5 3)"/>
</clipPath>
<clipPath id="clip1_453_152">
<rect width="17.1178" height="16.8862" fill="white" transform="translate(10.2773 6.16797)"/>
</clipPath>
</defs>
</svg>
