<svg width="35" height="35" viewBox="0 0 35 35" fill="none" xmlns="http://www.w3.org/2000/svg">
<g clip-path="url(#clip0_453_151)">
<path d="M24.8926 10.1175V5.52763C24.8926 4.88065 24.3677 4.46561 23.7451 4.58768L17.4707 5.95487C16.6894 6.12577 16.2622 6.55302 16.2622 7.23661L16.2866 20.8108C16.3477 21.4089 16.0669 21.7996 15.5298 21.9094L13.5889 22.3122C11.1475 22.8249 10 24.0701 10 25.9133C10 27.781 11.4404 29.0871 13.4668 29.0871C15.2612 29.0871 17.9468 27.7688 17.9468 24.2165V13.0472C17.9468 12.4002 18.0689 12.2659 18.6426 12.1438L24.2212 10.9231C24.6362 10.8377 24.8926 10.5203 24.8926 10.1175Z" fill="black" fill-opacity="0.85"/>
</g>
<defs>
<clipPath id="clip0_453_151">
<rect width="15.2466" height="25.0854" fill="white" transform="translate(10 4)"/>
</clipPath>
</defs>
</svg>
