<svg width="35" height="35" viewBox="0 0 35 35" fill="none" xmlns="http://www.w3.org/2000/svg">
<path d="M20.7124 27.6725H14.4136V19.6036C14.4136 19.0421 14.792 18.6759 15.3535 18.6759H19.7847C20.3462 18.6759 20.7124 19.0421 20.7124 19.6036V27.6725ZM6.80859 26.9401C6.80859 28.6368 7.83398 29.6378 9.55518 29.6378H25.6074C27.3286 29.6378 28.3418 28.6368 28.3418 26.9401V17.2721L18.3076 8.86145C17.8438 8.47083 17.2944 8.48303 16.8428 8.86145L6.80859 17.2721V26.9401ZM3 16.0514C3 16.5519 3.39063 17.028 4.0498 17.028C4.3916 17.028 4.67236 16.8448 4.92871 16.6373L17.1479 6.38342C17.4165 6.13928 17.7461 6.13928 18.0146 6.38342L30.2339 16.6373C30.478 16.8448 30.7588 17.028 31.1006 17.028C31.6743 17.028 32.1382 16.674 32.1382 16.088C32.1382 15.7218 32.0161 15.4777 31.7598 15.2579L19.0522 4.57678C18.1489 3.80774 17.0259 3.80774 16.1104 4.57678L3.39062 15.2579C3.12207 15.4777 3 15.7706 3 16.0514ZM25.2778 10.546L28.3418 13.1339V7.49426C28.3418 6.95715 28 6.61536 27.4629 6.61536H26.1567C25.6318 6.61536 25.2778 6.95715 25.2778 7.49426V10.546Z" fill="black" fill-opacity="0.85"/>
</svg>
